<svg width="613" height="116" viewBox="0 0 613 116" fill="none" xmlns="http://www.w3.org/2000/svg">
<path d="M609.266 111.198C602.142 111.198 596.088 110.014 588.478 96.048C581.524 83.288 579.482 79.576 575.154 71.456C571.24 64.3568 564.043 59.4152 555.728 58.1392C572.99 57.7448 585.56 48.2792 585.56 31.1576C585.56 15.196 572.431 2.8072 554.609 2.8072H491.928V5.5912H505.568V111.174H491.928V113.958H538.416V111.174H524.752V59.6704H533.894C547.047 59.6704 549.868 65.8416 553.661 73.0336C559.909 84.9816 561.879 88.74 567.204 98.9016C572.844 109.643 578.558 114.492 592.684 114.492C601.899 114.492 612.5 113.842 612.5 113.842V111.151H609.266V111.198ZM545.346 57.0024H524.728V5.4984H545.37C560.298 5.4984 565.04 16.7736 565.04 31.088C565.113 45.1008 560.396 57.0024 545.346 57.0024ZM446.754 111.198H421.808V59.6936H430.779C444.322 59.6936 455.288 70.1568 455.288 83.0792H457.452V33.6168H455.288C455.288 46.5392 444.322 57.0024 430.779 57.0024H421.808V5.4984H449.525C463.968 5.4984 475.663 16.6576 475.663 30.4384H477.948V2.8304H388.96V5.6144H402.624V111.198H388.96V113.982H482.592V79.1816H480.306C480.306 96.86 465.281 111.198 446.754 111.198ZM316.165 84.1232L286.842 2.8072H251.733V5.5912H266.249V111.198H251.733V113.982H284.314V111.198H269.166V10.324L307.825 116L346.557 9.2336V111.198H332.868V113.982H379.38V111.198H365.716V5.5912H379.38V2.8072H345.681L316.165 84.1232ZM58.2936 111.198H33.3235V5.5912H46.9878V2.8072H0.5V5.5912H14.1643V111.198H0.5V113.982H94.132V79.1816H91.8465C91.8465 96.86 76.8207 111.198 58.2936 111.198ZM161.675 0H156.351L112.392 111.244H100.94V114.028H129.946V111.198H115.601L131.356 71.34H169.577L185.454 111.198H171.984V113.982H216.187V111.198H205.878L161.675 0ZM132.499 68.556L150.467 23.1072L168.556 68.556H132.499Z" fill="#303030"/>
</svg>
